<svg width="24" height="24" viewBox="0 0 24 24" fill="none" xmlns="http://www.w3.org/2000/svg">
<path d="M11.5125 2.34558C12.2311 2.35428 12.9179 2.64368 13.4256 3.15222L20.7254 10.4501C21.1483 10.8731 21.5226 11.4847 21.6766 12.1376C21.8325 12.8015 21.7731 13.6133 21.1483 14.2372L14.2381 21.1483C13.6131 21.7733 12.8005 21.8326 12.1365 21.6766C11.4992 21.5165 10.9165 21.1883 10.45 20.7255L3.15216 13.4257C2.64462 12.9174 2.35441 12.2317 2.34454 11.5135L2.24982 4.02527C2.24645 3.79124 2.29071 3.55855 2.37872 3.34167C2.46673 3.12494 2.5971 2.92798 2.76251 2.76257C2.92793 2.59716 3.12486 2.46679 3.34161 2.37878C3.55849 2.29077 3.79118 2.24651 4.02521 2.24988L11.5125 2.34558ZM7.6004 5.70007C6.77198 5.70007 6.1004 6.37165 6.1004 7.20007C6.10044 8.02847 6.772 8.70007 7.6004 8.70007C8.42861 8.69984 9.10037 8.02833 9.1004 7.20007C9.1004 6.37179 8.42863 5.7003 7.6004 5.70007Z" fill="black"/>
</svg>
