<svg width="24" height="24" viewBox="0 0 24 24" fill="none" xmlns="http://www.w3.org/2000/svg">
<path d="M2 2H22V4.22222C20.7778 4.22222 19.7778 5.22222 19.7778 6.44444V19.7778C19.7778 21 18.7778 22 17.5556 22H6.44444C5.22222 22 4.22222 21 4.22222 19.7778V6.44444C4.22222 5.22222 3.22222 4.22222 2 4.22222V2ZM6.44444 8.66667V9.77778H9.77778V8.66667H6.44444ZM6.44444 10.8889V12H9.77778V10.8889H6.44444ZM9.77778 16.4444V15.3333H6.44444V16.4444H9.77778ZM12 14.2222V13.1111H6.44444V14.2222H12ZM12 7.55556V6.44444H6.44444V7.55556H12Z" fill="black"/>
</svg>
