<svg width="24" height="24" viewBox="0 0 24 24" fill="none" xmlns="http://www.w3.org/2000/svg">
<path d="M13.56 2.976C12.5586 2.57538 11.4414 2.57538 10.44 2.976L3.53162 5.742C3.19792 5.87546 2.9118 6.10576 2.71012 6.40325C2.50845 6.70074 2.40044 7.05179 2.40002 7.4112V16.5864C2.39996 16.9462 2.50774 17.2978 2.70945 17.5958C2.91116 17.8937 3.19754 18.1244 3.53162 18.258L10.44 21.0216C10.5824 21.0776 10.7264 21.1264 10.872 21.168L11.1636 20.004C11.07 19.9758 10.9775 19.9438 10.8864 19.908L3.97682 17.1444C3.86541 17.0997 3.76995 17.0227 3.70278 16.9232C3.63561 16.8238 3.59981 16.7064 3.60002 16.5864V7.4856L11.4 10.6056V19.104C11.5884 18.54 11.904 18.0252 12.3276 17.604L12.6 17.3304V10.6056L20.4 7.4856V10.8036C20.8061 10.7851 21.2122 10.8379 21.6 10.9596V7.4112C21.5998 7.05159 21.492 6.70027 21.2903 6.40255C21.0886 6.10482 20.8023 5.87433 20.4684 5.7408L13.56 2.976ZM10.8864 4.092C11.6017 3.80589 12.3996 3.80589 13.1148 4.092L19.3848 6.6L16.65 7.692L9.26522 4.74L10.8864 4.092ZM7.65002 5.3844L15.0348 8.3376L12 9.5532L4.61522 6.5988L7.65002 5.3844ZM13.176 18.4512L18.972 12.6552C19.1798 12.4442 19.4274 12.2765 19.7003 12.1616C19.9733 12.0467 20.2663 11.987 20.5625 11.9859C20.8586 11.9848 21.152 12.0424 21.4258 12.1552C21.6996 12.2681 21.9484 12.434 22.1578 12.6435C22.3671 12.8529 22.533 13.1017 22.6457 13.3756C22.7585 13.6494 22.8159 13.9429 22.8147 14.239C22.8135 14.5352 22.7537 14.8282 22.6387 15.1011C22.5237 15.374 22.3559 15.6215 22.1448 15.8292L16.3488 21.6252C16.0109 21.9624 15.5879 22.2017 15.1248 22.3176L13.3272 22.7676C13.1484 22.8122 12.961 22.8098 12.7833 22.7606C12.6057 22.7113 12.4438 22.6169 12.3135 22.4866C12.1831 22.3562 12.0887 22.1943 12.0395 22.0167C11.9902 21.839 11.9878 21.6517 12.0324 21.4728L12.4824 19.6752C12.5976 19.212 12.8376 18.7884 13.176 18.4512Z" fill="black"/>
</svg>
