<svg width="24" height="24" viewBox="0 0 24 24" fill="none" xmlns="http://www.w3.org/2000/svg">
<path d="M21.328 7.99998H18.4L17.776 4.27198C17.6503 3.70793 17.3742 3.18845 16.977 2.7687C16.5798 2.34896 16.0763 2.04461 15.52 1.88798C14.961 1.70906 14.3789 1.61206 13.792 1.59998H10.208C9.62116 1.61206 9.03912 1.70906 8.48004 1.88798C7.92378 2.04461 7.42032 2.34896 7.02311 2.7687C6.6259 3.18845 6.34977 3.70793 6.22404 4.27198L5.60004 7.99998H2.67204C2.54602 7.99921 2.42161 8.02823 2.30893 8.08466C2.19625 8.1411 2.0985 8.22335 2.02364 8.32473C1.94878 8.4261 1.89893 8.54373 1.87814 8.66802C1.85736 8.79232 1.86623 8.91976 1.90404 9.03998L4.91204 19.12C5.06518 19.6069 5.36959 20.0324 5.78105 20.3345C6.19251 20.6366 6.68958 20.7997 7.20004 20.8H16.8C17.3078 20.7963 17.8012 20.6317 18.2095 20.3298C18.6177 20.0279 18.9197 19.6043 19.072 19.12L22.08 9.03998C22.1175 8.92105 22.1266 8.79502 22.1066 8.67195C22.0867 8.54888 22.0382 8.43217 21.9652 8.33114C21.8921 8.23011 21.7965 8.14755 21.6859 8.09006C21.5752 8.03256 21.4527 8.00171 21.328 7.99998ZM7.23204 7.99998L7.80804 4.52798C7.87118 4.24449 8.01766 3.98637 8.22865 3.78679C8.43964 3.58721 8.70549 3.45528 8.99204 3.40798C9.38564 3.28318 9.79524 3.21438 10.208 3.19998H13.792C14.2112 3.21384 14.6219 3.28318 15.024 3.40798C15.3106 3.45528 15.5764 3.58721 15.7874 3.78679C15.9984 3.98637 16.1449 4.24449 16.208 4.52798L16.768 7.99998H7.16804H7.23204Z" fill="white"/>
</svg>
